<svg width="28" height="24" viewBox="0 0 28 24" fill="none" xmlns="http://www.w3.org/2000/svg">
<g filter="url(#filter0_d_1_50)">
<path fill-rule="evenodd" clip-rule="evenodd" d="M14 2C8.48 2 4 6.48 4 12C4 17.52 8.48 22 14 22C19.52 22 24 17.52 24 12C24 6.48 19.52 2 14 2ZM9.07 18.28C9.5 17.38 12.12 16.5 14 16.5C15.88 16.5 18.51 17.38 18.93 18.28C17.57 19.36 15.86 20 14 20C12.14 20 10.43 19.36 9.07 18.28ZM20.36 16.83C18.93 15.09 15.46 14.5 14 14.5C12.54 14.5 9.07 15.09 7.64 16.83C6.62 15.49 6 13.82 6 12C6 7.59 9.59 4 14 4C18.41 4 22 7.59 22 12C22 13.82 21.38 15.49 20.36 16.83V16.83ZM14 6C12.06 6 10.5 7.56 10.5 9.5C10.5 11.44 12.06 13 14 13C15.94 13 17.5 11.44 17.5 9.5C17.5 7.56 15.94 6 14 6ZM14 11C13.17 11 12.5 10.33 12.5 9.5C12.5 8.67 13.17 8 14 8C14.83 8 15.5 8.67 15.5 9.5C15.5 10.33 14.83 11 14 11Z" fill="white"/>
<mask id="mask0_1_50" style="mask-type:alpha" maskUnits="userSpaceOnUse" x="3" y="1" width="22" height="22">
<path fill-rule="evenodd" clip-rule="evenodd" d="M14 2C8.48 2 4 6.48 4 12C4 17.52 8.48 22 14 22C19.52 22 24 17.52 24 12C24 6.48 19.52 2 14 2ZM9.07 18.28C9.5 17.38 12.12 16.5 14 16.5C15.88 16.5 18.51 17.38 18.93 18.28C17.57 19.36 15.86 20 14 20C12.14 20 10.43 19.36 9.07 18.28ZM20.36 16.83C18.93 15.09 15.46 14.5 14 14.5C12.54 14.5 9.07 15.09 7.64 16.83C6.62 15.49 6 13.82 6 12C6 7.59 9.59 4 14 4C18.41 4 22 7.59 22 12C22 13.82 21.38 15.49 20.36 16.83V16.83ZM14 6C12.06 6 10.5 7.56 10.5 9.5C10.5 11.44 12.06 13 14 13C15.94 13 17.5 11.44 17.5 9.5C17.5 7.56 15.94 6 14 6ZM14 11C13.17 11 12.5 10.33 12.5 9.5C12.5 8.67 13.17 8 14 8C14.83 8 15.5 8.67 15.5 9.5C15.5 10.33 14.83 11 14 11Z" fill="white"/>
<path d="M9.07 18.28L8.61885 18.0644L8.44713 18.4239L8.75906 18.6716L9.07 18.28ZM18.93 18.28L19.2409 18.6716L19.55 18.4262L19.3831 18.0686L18.93 18.28ZM7.64 16.83L7.24215 17.1328L7.62497 17.6358L8.02629 17.1475L7.64 16.83ZM14 1.5C8.20386 1.5 3.5 6.20386 3.5 12H4.5C4.5 6.75614 8.75614 2.5 14 2.5V1.5ZM3.5 12C3.5 17.7961 8.20386 22.5 14 22.5V21.5C8.75614 21.5 4.5 17.2439 4.5 12H3.5ZM14 22.5C19.7961 22.5 24.5 17.7961 24.5 12H23.5C23.5 17.2439 19.2439 21.5 14 21.5V22.5ZM24.5 12C24.5 6.20386 19.7961 1.5 14 1.5V2.5C19.2439 2.5 23.5 6.75614 23.5 12H24.5ZM9.52115 18.4956C9.5662 18.4013 9.71102 18.2402 10.0218 18.0465C10.3175 17.8622 10.7085 17.6822 11.1574 17.5241C12.058 17.2068 13.1265 17 14 17V16C12.9935 16 11.812 16.2332 10.8251 16.5809C10.3302 16.7553 9.86812 16.964 9.4929 17.1978C9.13273 17.4223 8.7888 17.7087 8.61885 18.0644L9.52115 18.4956ZM14 17C14.8736 17 15.9447 17.2068 16.8465 17.5242C17.2961 17.6823 17.6872 17.8623 17.9822 18.0464C18.2927 18.2401 18.4343 18.4001 18.4769 18.4914L19.3831 18.0686C19.2157 17.7099 18.8711 17.4224 18.5116 17.198C18.1366 16.964 17.6739 16.7552 17.1785 16.5808C16.1903 16.2332 15.0064 16 14 16V17ZM18.6191 17.8884C17.3442 18.9008 15.7429 19.5 14 19.5V20.5C15.9771 20.5 17.7958 19.8192 19.2409 18.6716L18.6191 17.8884ZM14 19.5C12.2571 19.5 10.6558 18.9008 9.38094 17.8884L8.75906 18.6716C10.2042 19.8192 12.0229 20.5 14 20.5V19.5ZM20.7463 16.5125C19.9353 15.5258 18.5926 14.9072 17.3336 14.5332C16.0611 14.1552 14.7807 14 14 14V15C14.6793 15 15.8639 15.1398 17.0489 15.4918C18.2474 15.8478 19.3547 16.3942 19.9737 17.1475L20.7463 16.5125ZM14 14C13.2193 14 11.9389 14.1552 10.6664 14.5332C9.40736 14.9072 8.06469 15.5258 7.25371 16.5125L8.02629 17.1475C8.64531 16.3942 9.75264 15.8478 10.9511 15.4918C12.1361 15.1398 13.3207 15 14 15V14ZM8.03785 16.5272C7.0801 15.2689 6.5 13.7041 6.5 12H5.5C5.5 13.9359 6.1599 15.7111 7.24215 17.1328L8.03785 16.5272ZM6.5 12C6.5 7.86614 9.86614 4.5 14 4.5V3.5C9.31386 3.5 5.5 7.31386 5.5 12H6.5ZM14 4.5C18.1339 4.5 21.5 7.86614 21.5 12H22.5C22.5 7.31386 18.6861 3.5 14 3.5V4.5ZM21.5 12C21.5 13.7041 20.9199 15.2689 19.9621 16.5272L20.7579 17.1328C21.8401 15.7111 22.5 13.9359 22.5 12H21.5ZM14 5.5C11.7839 5.5 10 7.28386 10 9.5H11C11 7.83614 12.3361 6.5 14 6.5V5.5ZM10 9.5C10 11.7161 11.7839 13.5 14 13.5V12.5C12.3361 12.5 11 11.1639 11 9.5H10ZM14 13.5C16.2161 13.5 18 11.7161 18 9.5H17C17 11.1639 15.6639 12.5 14 12.5V13.5ZM18 9.5C18 7.28386 16.2161 5.5 14 5.5V6.5C15.6639 6.5 17 7.83614 17 9.5H18ZM14 10.5C13.4461 10.5 13 10.0539 13 9.5H12C12 10.6061 12.8939 11.5 14 11.5V10.5ZM13 9.5C13 8.94614 13.4461 8.5 14 8.5V7.5C12.8939 7.5 12 8.39386 12 9.5H13ZM14 8.5C14.5539 8.5 15 8.94614 15 9.5H16C16 8.39386 15.1061 7.5 14 7.5V8.5ZM15 9.5C15 10.0539 14.5539 10.5 14 10.5V11.5C15.1061 11.5 16 10.6061 16 9.5H15Z" fill="white"/>
</mask>
<g mask="url(#mask0_1_50)">
</g>
</g>
<defs>
<filter id="filter0_d_1_50" x="-2" y="0" width="32" height="32" filterUnits="userSpaceOnUse" color-interpolation-filters="sRGB">
<feFlood flood-opacity="0" result="BackgroundImageFix"/>
<feColorMatrix in="SourceAlpha" type="matrix" values="0 0 0 0 0 0 0 0 0 0 0 0 0 0 0 0 0 0 127 0" result="hardAlpha"/>
<feOffset dy="4"/>
<feGaussianBlur stdDeviation="2"/>
<feComposite in2="hardAlpha" operator="out"/>
<feColorMatrix type="matrix" values="0 0 0 0 0 0 0 0 0 0 0 0 0 0 0 0 0 0 0.25 0"/>
<feBlend mode="normal" in2="BackgroundImageFix" result="effect1_dropShadow_1_50"/>
<feBlend mode="normal" in="SourceGraphic" in2="effect1_dropShadow_1_50" result="shape"/>
</filter>
</defs>
</svg>
